# xmcd
#
# Track frame offsets: 
#        150
#        16585
#        33050
#        47137
#        64562
#        76912
#        91482
#        109510
#        120582
#        136585
#        156587
#        172235
#        185580
#        203055
#        221047
#        238150
#        255935
#        269615
#        280820
#        295305
#
# Disc length: 4140 seconds
#
# Revision: 9
# Processed by: cddbd v1.5.2PL0 Copyright (c) Steve Scherf et al.
# Submitted via: ExactAudioCopyFreeDBPlugin 1.0
#
DISCID=1a102a14
DTITLE=Various Artist - New Country Giants - the very best of new country mus
DTITLE=ic
DYEAR=1993
DGENRE=Country
TTITLE0=Steve Earle feat. The Pogues - Johnny Come Lately
TTITLE1=Nitty Gritty Dirt Band - You Ain´t Going Nowhere
TTITLE2=Desert Rose Band - He´s Back And I´m Blue
TTITLE3=Delbert McClinton - I´m With You
TTITLE4=Lyle Lovett - Stand By Your Man
TTITLE5=Reba McEntire - Walk On
TTITLE6=Hank Williams JR. - Family Tradition
TTITLE7=Patty Loveless - Chains
TTITLE8=Delbert McClinton - Stir It Up
TTITLE9=Joe Ely - The Road Goes On Forever
TTITLE10=Waylon Jennings - The Devils Right Hand
TTITLE11=Desert Rose Band - Love Reunited
TTITLE12=Wynonna Judd - I Saw The Light
TTITLE13=The Charlie Daniels Band - The South´s Gonna Do It
TTITLE14=Nanci Griffith - Listen To The Radio
TTITLE15=Hank Williams JR. - All My Rowdy Friends Have Settled Down
TTITLE16=Merle Haggard - A Bar In Bakersfield
TTITLE17=Wayne Newton and Ronny McDowell - She´s My Saturday Night Speci
TTITLE17=al
TTITLE18=Delbert McClinton - Thats The Way I Feel
TTITLE19=Boy Howdy - You Really Got Me
EXTD=
EXTT0=
EXTT1=
EXTT2=
EXTT3=
EXTT4=
EXTT5=
EXTT6=
EXTT7=
EXTT8=
EXTT9=
EXTT10=
EXTT11=
EXTT12=
EXTT13=
EXTT14=
EXTT15=
EXTT16=
EXTT17=
EXTT18=
EXTT19=
PLAYORDER=
